<mxfile host="app.diagrams.net" modified="2022-04-21T08:02:49.032Z" agent="5.0 (Windows NT 10.0; Win64; x64) AppleWebKit/537.36 (KHTML, like Gecko) Chrome/100.0.4896.127 Safari/537.36" etag="KQyEjDTXjCM3OA9Qqm_b" version="17.4.6" type="github">
  <diagram id="Llr04aB2i8rG7F-lMMOM" name="Page-1">
    <mxGraphModel dx="1022" dy="436" grid="1" gridSize="10" guides="1" tooltips="1" connect="1" arrows="1" fold="1" page="1" pageScale="1" pageWidth="1169" pageHeight="1654" math="0" shadow="0">
      <root>
        <mxCell id="0" />
        <mxCell id="1" parent="0" />
        <mxCell id="2Cyx6ej7TCa64QBJHTCq-1" value="&lt;font style=&quot;font-size: 18px&quot;&gt;As Mario I want to see the list of orders and pick-up time on the screen all the time.&lt;/font&gt;" style="text;html=1;strokeColor=none;fillColor=none;align=center;verticalAlign=middle;whiteSpace=wrap;rounded=0;" vertex="1" parent="1">
          <mxGeometry x="585" y="620" width="225" height="90" as="geometry" />
        </mxCell>
        <mxCell id="2Cyx6ej7TCa64QBJHTCq-17" value="" style="edgeStyle=orthogonalEdgeStyle;rounded=0;orthogonalLoop=1;jettySize=auto;html=1;fontSize=18;" edge="1" parent="1" source="2Cyx6ej7TCa64QBJHTCq-2" target="2Cyx6ej7TCa64QBJHTCq-5">
          <mxGeometry relative="1" as="geometry" />
        </mxCell>
        <mxCell id="2Cyx6ej7TCa64QBJHTCq-2" value="" style="ellipse;fillColor=#000000;strokeColor=none;" vertex="1" parent="1">
          <mxGeometry x="40" y="450" width="30" height="30" as="geometry" />
        </mxCell>
        <mxCell id="2Cyx6ej7TCa64QBJHTCq-19" value="" style="edgeStyle=orthogonalEdgeStyle;rounded=0;orthogonalLoop=1;jettySize=auto;html=1;fontSize=18;" edge="1" parent="1" source="2Cyx6ej7TCa64QBJHTCq-5" target="2Cyx6ej7TCa64QBJHTCq-18">
          <mxGeometry relative="1" as="geometry" />
        </mxCell>
        <mxCell id="2Cyx6ej7TCa64QBJHTCq-5" value="print: which pizza to make the next&amp;nbsp;&lt;br&gt;(with number, name, quantity and description)" style="rounded=1;whiteSpace=wrap;html=1;" vertex="1" parent="1">
          <mxGeometry x="120" y="428.13" width="250" height="73.75" as="geometry" />
        </mxCell>
        <mxCell id="2Cyx6ej7TCa64QBJHTCq-7" value="&lt;p class=&quot;MsoNormal&quot;&gt;&lt;span lang=&quot;EN-US&quot; style=&quot;line-height: 107%&quot;&gt;&lt;font style=&quot;font-size: 18px&quot;&gt;As Mario I want to know which pizza to make next (the&lt;br&gt;priority list) and when to make it&lt;/font&gt;&lt;/span&gt;&lt;/p&gt;" style="text;html=1;strokeColor=none;fillColor=none;align=center;verticalAlign=middle;whiteSpace=wrap;rounded=0;" vertex="1" parent="1">
          <mxGeometry x="590" y="480" width="200" height="10" as="geometry" />
        </mxCell>
        <mxCell id="2Cyx6ej7TCa64QBJHTCq-8" value="Aktivitetsdiagram user story 2" style="text;html=1;strokeColor=none;fillColor=none;align=center;verticalAlign=middle;whiteSpace=wrap;rounded=0;fontSize=18;" vertex="1" parent="1">
          <mxGeometry x="20" y="370" width="500" height="30" as="geometry" />
        </mxCell>
        <mxCell id="2Cyx6ej7TCa64QBJHTCq-9" value="Aktivitetsdiagram user story 3" style="text;html=1;strokeColor=none;fillColor=none;align=center;verticalAlign=middle;whiteSpace=wrap;rounded=0;fontSize=18;" vertex="1" parent="1">
          <mxGeometry x="60" y="580" width="500" height="30" as="geometry" />
        </mxCell>
        <mxCell id="2Cyx6ej7TCa64QBJHTCq-12" value="" style="edgeStyle=orthogonalEdgeStyle;rounded=0;orthogonalLoop=1;jettySize=auto;html=1;" edge="1" parent="1" source="2Cyx6ej7TCa64QBJHTCq-13" target="2Cyx6ej7TCa64QBJHTCq-15">
          <mxGeometry relative="1" as="geometry" />
        </mxCell>
        <mxCell id="2Cyx6ej7TCa64QBJHTCq-13" value="" style="ellipse;fillColor=#000000;strokeColor=none;" vertex="1" parent="1">
          <mxGeometry x="40" y="645" width="30" height="30" as="geometry" />
        </mxCell>
        <mxCell id="2Cyx6ej7TCa64QBJHTCq-15" value="Print: list of orders with pickup-time" style="rounded=1;whiteSpace=wrap;html=1;" vertex="1" parent="1">
          <mxGeometry x="140" y="630" width="120" height="60" as="geometry" />
        </mxCell>
        <mxCell id="2Cyx6ej7TCa64QBJHTCq-18" value="print: when to make the pizza" style="whiteSpace=wrap;html=1;rounded=1;" vertex="1" parent="1">
          <mxGeometry x="410" y="435.005" width="120" height="60" as="geometry" />
        </mxCell>
        <mxCell id="2Cyx6ej7TCa64QBJHTCq-20" value="As Alfonso i want to delete the orders that are done and paid for" style="text;html=1;strokeColor=none;fillColor=none;align=center;verticalAlign=middle;whiteSpace=wrap;rounded=0;fontSize=18;" vertex="1" parent="1">
          <mxGeometry x="600" y="812" width="210" height="58" as="geometry" />
        </mxCell>
        <mxCell id="2Cyx6ej7TCa64QBJHTCq-21" value="Aktivitetsdiagram user story 4" style="text;html=1;strokeColor=none;fillColor=none;align=center;verticalAlign=middle;whiteSpace=wrap;rounded=0;fontSize=18;" vertex="1" parent="1">
          <mxGeometry x="60" y="760" width="500" height="30" as="geometry" />
        </mxCell>
      </root>
    </mxGraphModel>
  </diagram>
</mxfile>
